<svg xmlns="http://www.w3.org/2000/svg" viewBox="0 0 90 90"><defs><style>.cls-1{fill:#fff;}.cls-2{fill:#ea4468;}.cls-3,.cls-4{fill:none;stroke-miterlimit:10;}.cls-3{stroke:#ea4468;stroke-width:4px;}.cls-4{stroke:#fcee21;stroke-width:2px;}</style></defs><title>자산 2</title><g id="레이어_2" data-name="레이어 2"><g id="레이어_1-2" data-name="레이어 1"><rect class="cls-1" x="2" y="2" width="86" height="86" rx="5.09" ry="5.09"/><path class="cls-2" d="M82.91,4A3.09,3.09,0,0,1,86,7.09V82.91A3.09,3.09,0,0,1,82.91,86H7.09A3.09,3.09,0,0,1,4,82.91V7.09A3.09,3.09,0,0,1,7.09,4H82.91m0-4H7.09A7.08,7.08,0,0,0,0,7.09V82.91A7.08,7.08,0,0,0,7.09,90H82.91A7.08,7.08,0,0,0,90,82.91V7.09A7.08,7.08,0,0,0,82.91,0Z"/><line class="cls-3" x1="20.59" y1="80.5" x2="37.59" y2="31.5"/><line class="cls-3" x1="51.09" y1="31" x2="69.59" y2="81.5"/><line class="cls-3" x1="31.59" y1="48.5" x2="56.59" y2="48.5"/><line class="cls-3" x1="24.09" y1="70" x2="65.59" y2="70"/><line class="cls-3" x1="29.09" y1="59" x2="60.09" y2="59"/><line class="cls-3" x1="34.59" y1="40" x2="54.59" y2="40"/><polygon class="cls-4" points="44.09 11.15 46.5 16.04 51.9 16.82 48 20.63 48.92 26 44.09 23.46 39.27 26 40.19 20.63 36.28 16.82 41.68 16.04 44.09 11.15"/></g></g></svg>